<?xml version="1.0" standalone="no"?><!DOCTYPE svg PUBLIC "-//W3C//DTD SVG 1.1//EN" "http://www.w3.org/Graphics/SVG/1.1/DTD/svg11.dtd"><svg t="1708426661953" class="icon" viewBox="0 0 1024 1024" version="1.1" xmlns="http://www.w3.org/2000/svg" p-id="4862" xmlns:xlink="http://www.w3.org/1999/xlink" width="32" height="32"><path d="M806.4 532.992a71.424 71.424 0 0 1-69.376 73.216H286.976a71.424 71.424 0 0 1-69.376-73.216V90.368A71.424 71.424 0 0 1 286.976 17.408h450.048a71.168 71.168 0 0 1 69.376 72.96z" fill="#FFFFFF" p-id="4863"></path><path d="M737.024 619.008H286.976A84.224 84.224 0 0 1 204.8 532.992V90.368A83.968 83.968 0 0 1 286.976 4.608h450.048A83.968 83.968 0 0 1 819.2 90.368v442.624a84.224 84.224 0 0 1-82.176 86.016z m-450.048-588.8A58.368 58.368 0 0 0 230.4 90.368v442.624a58.624 58.624 0 0 0 56.576 60.416h450.048A58.624 58.624 0 0 0 793.6 532.992V90.368a58.368 58.368 0 0 0-56.576-60.16z" fill="#DA4D31" p-id="4864"></path><path d="M537.6 959.744s32.256 46.848-25.6 46.848-25.6-46.848-25.6-46.848V606.208h51.2z" fill="#FFFFFF" p-id="4865"></path><path d="M512 1019.392a45.824 45.824 0 0 1-43.776-18.944 48.896 48.896 0 0 1 4.608-44.288V593.408h78.336v362.752a46.848 46.848 0 0 1 5.376 43.776 45.568 45.568 0 0 1-44.544 19.456z m-13.568-400.384v344.576l-2.048 3.072c-3.84 5.888-7.936 16.896-5.632 21.504s7.936 5.632 21.248 5.632 20.224-2.816 21.76-5.632-2.048-15.36-5.888-21.248l-2.304-3.328V619.008z" fill="#DA4D31" p-id="4866"></path><path d="M504.32 576V563.2a25.6 25.6 0 0 0-25.6-27.904 324.352 324.352 0 0 1-73.216-13.824 181.76 181.76 0 0 1-98.816-76.8 44.544 44.544 0 0 1-3.584-6.912 3.84 3.84 0 0 1 1.536 0c1.792 1.536 4.096 2.816 5.888 4.608a221.44 221.44 0 0 0 130.304 59.392 184.832 184.832 0 0 0 126.72-32.768 208.64 208.64 0 0 0 79.36-98.048 193.536 193.536 0 0 0 11.52-63.744 166.144 166.144 0 0 1 1.28-19.712 22.784 22.784 0 0 1 21.76-20.224c6.656 0 7.424-2.816 3.328-8.192-32.768-40.704-64.768-82.176-98.56-122.112a93.952 93.952 0 0 0-140.8 0c-29.44 35.072-57.6 71.168-86.272 106.496-3.84 5.12-7.936 9.984-11.776 15.36a8.448 8.448 0 0 0-1.792 5.888s3.328 1.536 5.376 2.048a4.352 4.352 0 0 0 2.56 0c19.968-2.048 29.696 9.984 26.88 29.952a79.616 79.616 0 0 1-46.08 60.928 25.6 25.6 0 0 0 2.048-4.608 194.048 194.048 0 0 0 8.448-22.016c2.048-8.192-1.792-12.288-9.984-12.288H281.6c-21.504 0-31.232-16.384-19.712-34.56a317.184 317.184 0 0 1 23.808-31.488c42.24-52.48 83.968-104.96 128-156.672a135.168 135.168 0 0 1 207.36 0c48.896 59.136 96.768 119.296 144.64 179.2a55.04 55.04 0 0 1 7.68 12.288 20.48 20.48 0 0 1-19.712 30.208h-27.392a17.152 17.152 0 0 0-19.712 17.408 227.072 227.072 0 0 1-22.016 74.496 221.44 221.44 0 0 1-98.304 100.608 197.12 197.12 0 0 0-74.24 61.184 43.52 43.52 0 0 1-6.144 5.632z" fill="#DA4D31" p-id="4867"></path><path d="M649.472 238.336c-7.424 6.912-13.312 12.544-19.456 17.92a23.04 23.04 0 0 0-7.68 22.016 161.536 161.536 0 0 1-13.312 89.088 168.704 168.704 0 0 1-248.064 70.656 160.256 160.256 0 0 1-42.496-37.376l-4.096-5.376c-4.352-7.168-2.816-9.984 5.376-10.24a99.072 99.072 0 0 0 57.856-17.92 80.128 80.128 0 0 0 34.56-66.048 209.152 209.152 0 0 1 5.632-59.136 104.704 104.704 0 0 1 108.544-76.8 98.56 98.56 0 0 1 74.24 47.36 151.552 151.552 0 0 1 8.448 15.616 10.752 10.752 0 0 0 10.496 6.912c7.168 0 14.08 0 21.248 1.536a51.2 51.2 0 0 1 8.704 1.792z m-114.432 3.84a16.896 16.896 0 1 0 16.64-16.896 16.128 16.128 0 0 0-16.64 16.896z" fill="#DA4D31" p-id="4868"></path></svg>