<?xml version="1.0" standalone="no"?><!DOCTYPE svg PUBLIC "-//W3C//DTD SVG 1.1//EN" "http://www.w3.org/Graphics/SVG/1.1/DTD/svg11.dtd"><svg t="1708329329461" class="icon" viewBox="0 0 1408 1024" version="1.1" xmlns="http://www.w3.org/2000/svg" p-id="8022" width="44" height="32" xmlns:xlink="http://www.w3.org/1999/xlink"><path d="M410.88 512a370.56 370.56 0 0 1-371.2 369.92v64a432 432 0 1 0 0-864v64A370.56 370.56 0 0 1 410.88 512z" fill="#1296db" p-id="8023"></path><path d="M671.36 39.04h62.08v945.28h-62.08z" fill="#1296db" p-id="8024"></path><path d="M1344 0H64a64 64 0 0 0-64 64v896a64 64 0 0 0 64 64h1280a64 64 0 0 0 64-64V64a64 64 0 0 0-64-64z m0 960H64V64h1280z" fill="#1296db" p-id="8025"></path><path d="M695.04 312.96a185.6 185.6 0 1 0 186.24 185.6 185.6 185.6 0 0 0-186.24-185.6z m47.36 300.16a124.16 124.16 0 1 1-47.36-238.08 123.52 123.52 0 0 1 47.36 238.08zM979.2 512a370.56 370.56 0 0 1 371.2-369.92v-64a432 432 0 1 0 0 864v-64A370.56 370.56 0 0 1 979.2 512z" fill="#1296db" p-id="8026"></path></svg>