<?xml version="1.0" standalone="no"?><!DOCTYPE svg PUBLIC "-//W3C//DTD SVG 1.1//EN" "http://www.w3.org/Graphics/SVG/1.1/DTD/svg11.dtd"><svg t="1708346774776" class="icon" viewBox="0 0 1024 1024" version="1.1" xmlns="http://www.w3.org/2000/svg" p-id="9570" xmlns:xlink="http://www.w3.org/1999/xlink" width="32" height="32"><path d="M511.981761 1024a811.427093 811.427093 0 0 0-511.981761-176.249721V300.825763a811.427093 811.427093 0 0 1 511.981761 176.249721A811.491091 811.491091 0 0 1 1023.963521 300.825763v546.924516A811.491091 811.491091 0 0 0 511.981761 1024z m415.98518-621.161871a704.614898 704.614898 0 0 0-355.507335 148.794699L511.981761 600.687081l-60.477846-49.054253A704.486903 704.486903 0 0 0 95.99658 402.838129v353.747398a908.767625 908.767625 0 0 1 415.985181 148.122723 908.767625 908.767625 0 0 1 415.98518-148.122723V402.838129zM511.469779 298.361851a149.178686 149.178686 0 1 1 149.146687-149.178686 149.306681 149.306681 0 0 1-149.146687 149.178686z" fill="#0590DF" p-id="9571"></path></svg>