<?xml version="1.0" standalone="no"?><!DOCTYPE svg PUBLIC "-//W3C//DTD SVG 1.1//EN" "http://www.w3.org/Graphics/SVG/1.1/DTD/svg11.dtd"><svg t="1708397186257" class="icon" viewBox="0 0 1024 1024" version="1.1" xmlns="http://www.w3.org/2000/svg" p-id="6307" xmlns:xlink="http://www.w3.org/1999/xlink" width="32" height="32"><path d="M770 269h-91.6V150.3c0-20.8-15.6-38.3-35.2-38.3h-263c-19.1 0-35.2 17-35.2 38.3V269h-91c-78.5 0-142 69-142 154.2V452h800v-28.8C912 338 848.5 269 770 269z m-139.6 0.5H393.6V164.7h236.8v104.8zM112 500.5V912h800V500.5H112z m514.9 243.3h-80.5v87.5h-69v-87.5h-80.5v-75h80.5v-87.5h69v87.5h80.5v75z" p-id="6308" fill="#1296db"></path></svg>