<?xml version="1.0" standalone="no"?><!DOCTYPE svg PUBLIC "-//W3C//DTD SVG 1.1//EN" "http://www.w3.org/Graphics/SVG/1.1/DTD/svg11.dtd"><svg t="1708486378106" class="icon" viewBox="0 0 1024 1024" version="1.1" xmlns="http://www.w3.org/2000/svg" p-id="5484" xmlns:xlink="http://www.w3.org/1999/xlink" width="32" height="32"><path d="M511.5776 620.8A300.8 300.8 0 0 1 298.88 107.3024a300.8 300.8 0 1 1 425.3952 425.3952A298.816 298.816 0 0 1 511.5776 620.8z m0-537.6c-130.56 0-236.8 106.24-236.8 236.8s106.24 236.8 236.8 236.8 236.8-106.24 236.8-236.8-106.2272-236.8-236.8-236.8z" p-id="5485" fill="#B24949"></path><path d="M940.1856 1003.52a32 32 0 0 1-31.7696-28.4288C885.76 773.12 715.1488 620.8 511.5776 620.8s-374.1824 152.32-396.8 354.2912a32 32 0 0 1-63.6032-7.1424 463.36 463.36 0 0 1 920.896 0 32 32 0 0 1-28.16 35.3664 31.3472 31.3472 0 0 1-3.7248 0.2048zM511.5776 480.0768a397.7344 397.7344 0 0 1-102.1568-13.3248l-7.1936-1.9072a32 32 0 0 1 16.448-61.8496l7.1808 1.9072a334.08 334.08 0 0 0 171.4304 0l7.1936-1.9072a32 32 0 0 1 16.4352 61.8496l-7.1808 1.9072a397.7984 397.7984 0 0 1-102.1568 13.3248z" p-id="5486" fill="#B24949"></path></svg>