<?xml version="1.0" standalone="no"?><!DOCTYPE svg PUBLIC "-//W3C//DTD SVG 1.1//EN" "http://www.w3.org/Graphics/SVG/1.1/DTD/svg11.dtd"><svg t="1708486089767" class="icon" viewBox="0 0 1024 1024" version="1.1" xmlns="http://www.w3.org/2000/svg" p-id="2781" xmlns:xlink="http://www.w3.org/1999/xlink" width="32" height="32"><path d="M625.566 589.1c31.214 0 56.52 25.304 56.52 56.52 0 31.214-25.306 56.52-56.52 56.52H399.485c-31.214 0-56.518-25.306-56.518-56.52 0-31.216 25.304-56.52 56.518-56.52h226.081z m301.439 282.599c0 31.214-25.306 56.52-56.52 56.52h-471c-31.214 0-56.518-25.306-56.518-56.52 0-31.216 25.304-56.52 56.518-56.52h414.48V502.075L512.319 232.402 211.085 501.366v370.333c0 31.214-25.304 56.52-56.52 56.52-31.214 0-56.518-25.306-56.518-56.52V476.742c-0.396-15.064 5.043-30.249 16.56-41.746l357.495-319.203c22.267-22.231 58.374-22.231 80.642 0 0.273 0.271 0.45 0.599 0.716 0.874l356.672 318.866c4.103 4.101 7.189 8.774 9.778 13.642 4.378 8.028 7.093 17.095 7.093 26.885v395.639z" fill="#8a8a8a" p-id="2782"></path><path d="M512.546 99.114c-31.216 0-56.522 25.304-56.522 56.52 0 31.214 25.306 56.52 56.522 56.52 31.214 0 56.52-25.306 56.52-56.52 0-31.216-25.306-56.52-56.52-56.52z m357.959 715.918c-31.216 0-56.52 25.304-56.52 56.52 0 31.214 25.304 56.52 56.52 56.52 31.214 0 56.52-25.306 56.52-56.52-0.001-31.216-25.306-56.52-56.52-56.52z m-471-226.079c-31.214 0-56.518 25.304-56.518 56.52 0 31.214 25.304 56.52 56.518 56.52 31.216 0 56.52-25.306 56.52-56.52-0.001-31.217-25.305-56.52-56.52-56.52z" fill="#8a8a8a" p-id="2783"></path></svg>