<svg width="12" height="12" viewBox="0 0 12 12" fill="none" xmlns="http://www.w3.org/2000/svg">
<g id="Group 220986">
<rect id="Rectangle 12587" width="12" height="12" fill="white"/>
<path id="Vector" d="M5.37746 11.236C5.54159 11.4061 5.76785 11.5 6.00098 11.5H6.00099H6.001H6.00101H6.00102H6.00103H6.00105H6.00106H6.00107H6.00108H6.00109H6.00111H6.00112H6.00113H6.00114H6.00115H6.00117H6.00118H6.00119H6.0012H6.00121H6.00123H6.00124H6.00125H6.00126H6.00128H6.00129H6.0013H6.00131H6.00133H6.00134H6.00135H6.00137H6.00138H6.00139H6.0014H6.00142H6.00143H6.00144H6.00146H6.00147H6.00148H6.0015H6.00151H6.00152H6.00153H6.00155H6.00156H6.00157H6.00159H6.0016H6.00162H6.00163H6.00164H6.00166H6.00167H6.00168H6.0017H6.00171H6.00172H6.00174H6.00175H6.00177H6.00178H6.00179H6.00181H6.00182H6.00184H6.00185H6.00186H6.00188H6.00189H6.00191H6.00192H6.00194H6.00195H6.00196H6.00198H6.00199H6.00201H6.00202H6.00204H6.00205H6.00207H6.00208H6.00209H6.00211H6.00212H6.00214H6.00215H6.00217H6.00218H6.0022H6.00221H6.00223H6.00224H6.00226H6.00227H6.00229H6.0023H6.00232H6.00233H6.00235H6.00236H6.00238H6.00239H6.00241H6.00242H6.00244H6.00245H6.00247H6.00248H6.0025H6.00251H6.00253H6.00255H6.00256H6.00258H6.00259H6.00261H6.00262H6.00264H6.00265H6.00267H6.00269H6.0027H6.00272H6.00273H6.00275H6.00276H6.00278H6.0028H6.00281H6.00283H6.00284H6.00286H6.00287H6.00289H6.00291H6.00292H6.00294H6.00295H6.00297H6.00299H6.003H6.00302H6.00304H6.00305H6.00307H6.00308H6.0031H6.00312H6.00313H6.00315H6.00316H6.00318H6.0032H6.00321H6.00323H6.00325H6.00326H6.00328H6.0033H6.00331H6.00333H6.00335H6.00336H6.00338H6.00339H6.00341H6.00343H6.00344H6.00346H6.00348H6.00349H6.00351H6.00353H6.00354H6.00356H6.00358H6.00359H6.00361H6.00363H6.00364H6.00366H6.00368H6.00369H6.00371H6.00373H6.00374H6.00376H6.00378H6.00379H6.00381H6.00383H6.00384H6.00386H6.00388H6.0039H6.00391H6.00393H6.00395H6.00396H6.00398H6.004H6.00401H6.00403H6.00405H6.00406H6.00408H6.0041H6.00412H6.00413H6.00415H6.00417H6.00418H6.0042H6.00422H6.00423H6.00425H6.00427H6.00429H6.0043H6.00432H6.00434H6.00435H6.00437H6.00439H6.00441H6.00442H6.00444H6.00446H6.00447H6.00449H6.00451H6.00453H6.00454H6.00456H6.00458H6.00459H6.00461H6.00463H6.00465H6.00466H6.00468H6.0047H6.00471H6.00473H6.00475H6.00477H6.00478H6.0048H6.00482H6.00483H6.00485H6.00487H6.00489H6.0049H6.00492H6.00494H6.00495H6.00497H6.00499H6.00501H6.00502H6.00504H6.00506H6.00507H6.00509H6.00511H6.00513H6.00514H6.00516H6.00518H6.0052H6.00521H6.00523H6.00525H6.00526H6.00528H6.0053H6.00532H6.00533H6.00535H6.00537H6.00538H6.0054H6.00542H6.00543H6.00545H6.00547H6.00549H6.0055H6.00552H6.00554H6.00555H6.00557H6.00559H6.00561H6.00562H6.00564H6.00566H6.00567H6.00569H6.00571H6.00572H6.00574H6.00576H6.00578H6.00579H6.00581H6.00583H6.00584H6.00586H6.00588H6.00589H6.00591H6.00593H6.00594H6.00596H6.00598H6.00599H6.00601H6.00603H6.00605H6.00606H6.00608H6.0061H6.00611H6.00613H6.00615H6.00616H6.00618H6.0062H6.00621H6.00623H6.00625H6.00626H6.00628H6.0063H6.00631H6.00633H6.00634H6.00636H6.00638H6.00639H6.00641H6.00643H6.00644H6.00646H6.00648H6.00649H6.00651H6.00653H6.00654H6.00656H6.00658H6.00659H6.00661H6.00662H6.00664H6.00666H6.00667H6.00669H6.0067H6.00672H6.00674H6.00675H6.00677H6.00679H6.0068H6.00682H6.00683H6.00685H6.00687H6.00688H6.0069H6.00691H6.00693H6.00695H6.00696H6.00698H6.00699H6.00701H6.00702H6.00704H6.00706H6.00707H6.00709H6.0071H6.00712H6.00713H6.00715H6.00716H6.00718H6.0072H6.00721H6.00723H6.00724H6.00726H6.00727H6.00729H6.0073H6.00732H6.00733H6.00735H6.00736H6.00738H6.0074H6.00741H6.00743H6.00744H6.00746H6.00747H6.00749H6.0075H6.00752H6.00753H6.00755H6.00756H6.00758H6.00759H6.0076H6.00762H6.00763H6.00765H6.00766H6.00768H6.00769H6.00771H6.00772H6.00774H6.00775H6.00777H6.00778H6.00779H6.00781H6.00782H6.00784H6.00785H6.00787H6.00788H6.00789H6.00791H6.00792H6.00794H6.00795H6.00796H6.00798H6.00799H6.00801H6.00802H6.00803H6.00805H6.00806H6.00808H6.00809H6.0081H6.00812H6.00813H6.00814H6.00816H6.00817H6.00818H6.0082H6.00821H6.00822H6.00824H6.00825H6.00826H6.00828H6.00829H6.0083H6.00832H6.00833H6.00834H6.00836H6.00837H6.00838H6.00839H6.00841H6.00842H6.00843H6.00845H6.00846H6.00847H6.00848H6.0085H6.00851H6.00852H6.00853H6.00855H6.00856H6.00857H6.00858H6.00859H6.00861H6.00862H6.00863H6.00864H6.00865H6.00867H6.00868H6.00869H6.0087H6.00871H6.00873H6.00874H6.00875H6.00876H6.00877H6.00878H6.0088C6.25871 11.5 6.49163 11.3886 6.64997 11.2075L7.88939 9.81374L7.89487 9.80757L7.90015 9.80123C8.73685 8.7954 9.37957 7.8891 9.81543 7.09014C10.2465 6.29988 10.5 5.57034 10.5 4.92974C10.5 2.47776 8.47335 0.5 5.99902 0.5C3.52665 0.5 1.5 2.47776 1.5 4.92782C1.5 5.57414 1.77046 6.28621 2.1198 6.95149C2.47586 7.62956 2.94638 8.31882 3.41271 8.93494C4.34427 10.1657 5.29302 11.1488 5.37746 11.236ZM5.37746 11.236C5.3773 11.2358 5.37714 11.2357 5.37697 11.2355L5.73711 10.8887L5.37794 11.2365C5.37778 11.2363 5.37762 11.2362 5.37746 11.236ZM5.99902 6.21319C5.26202 6.21319 4.68129 5.63 4.68129 4.92782C4.68129 4.22564 5.26202 3.64245 5.99902 3.64245C6.73603 3.64245 7.31676 4.22564 7.31676 4.92782C7.31676 5.63 6.73603 6.21319 5.99902 6.21319Z" stroke="#292C35"/>
</g>
</svg>
