<svg width="36" height="36" viewBox="0 0 36 36" fill="none" xmlns="http://www.w3.org/2000/svg">
<path id="Union" fill-rule="evenodd" clip-rule="evenodd" d="M18 2.53125C20.0883 2.53125 22.1133 2.93906 24.0188 3.74414C25.8609 4.52461 27.5133 5.63906 28.9371 7.05938C30.3574 8.47969 31.4754 10.1355 32.2523 11.9777C33.0609 13.8867 33.4688 15.9117 33.4688 18C33.4688 20.0883 33.0609 22.1133 32.2559 24.0188C31.4754 25.8609 30.3609 27.5133 28.9406 28.9371C27.5203 30.3574 25.8645 31.4754 24.0223 32.2523C22.1133 33.0609 20.0883 33.4688 18 33.4688C15.9117 33.4688 13.8867 33.0609 11.9812 32.2559C10.1391 31.4754 8.48672 30.3609 7.06289 28.9406C5.64258 27.5203 4.52461 25.8645 3.74766 24.0223C2.93906 22.1133 2.53125 20.0883 2.53125 18C2.53125 15.9117 2.93906 13.8867 3.74414 11.9812C4.52461 10.1391 5.63906 8.48672 7.05938 7.06289C8.47969 5.64258 10.1355 4.52461 11.9777 3.74766C13.8867 2.93906 15.9117 2.53125 18 2.53125ZM18 0C8.05781 0 0 8.05781 0 18C0 27.9422 8.05781 36 18 36C27.9422 36 36 27.9422 36 18C36 8.05781 27.9422 0 18 0ZM12.3328 24.9328C12.0094 24.9328 11.6859 24.8098 11.4363 24.5637C10.9406 24.068 10.9406 23.2664 11.4363 22.7742L16.2088 18.0018L11.4363 13.2293C10.9406 12.7336 10.9406 11.932 11.4363 11.4398C11.932 10.9441 12.7336 10.9441 13.2258 11.4398L17.9982 16.2123L22.7707 11.4398C23.2664 10.9441 24.068 10.9441 24.5602 11.4398C25.0559 11.9355 25.0559 12.7371 24.5602 13.2293L19.7884 18.0025L24.5602 22.7742C25.0559 23.2699 25.0559 24.0715 24.5602 24.5637C24.3141 24.8098 23.9906 24.9328 23.6672 24.9328C23.3438 24.9328 23.0203 24.8098 22.7707 24.5637L17.9993 19.7922L13.2293 24.5637C12.9797 24.8098 12.6562 24.9328 12.3328 24.9328Z" fill="white"/>
</svg>
