<svg width="70" height="30" viewBox="0 0 70 30" fill="none" xmlns="http://www.w3.org/2000/svg">
<g filter="url(#filter0_i_110_3173)">
<rect width="70" height="30" rx="4" fill="url(#paint0_linear_110_3173)"/>
</g>
<mask id="path-2-inside-1_110_3173" fill="white">
<path fill-rule="evenodd" clip-rule="evenodd" d="M4 5C4 3.89543 4.89543 3 6 3H64C65.1046 3 66 3.89543 66 5V12C64.6118 12 63.4865 13.3431 63.4865 15C63.4865 16.6569 64.6118 18 66 18V25C66 26.1046 65.1046 27 64 27H6C4.89543 27 4 26.1046 4 25V18C5.38818 18 6.51351 16.6569 6.51351 15C6.51351 13.3431 5.38818 12 4 12V5Z"/>
</mask>
<path fill-rule="evenodd" clip-rule="evenodd" d="M4 5C4 3.89543 4.89543 3 6 3H64C65.1046 3 66 3.89543 66 5V12C64.6118 12 63.4865 13.3431 63.4865 15C63.4865 16.6569 64.6118 18 66 18V25C66 26.1046 65.1046 27 64 27H6C4.89543 27 4 26.1046 4 25V18C5.38818 18 6.51351 16.6569 6.51351 15C6.51351 13.3431 5.38818 12 4 12V5Z" fill="url(#paint1_linear_110_3173)"/>
<path d="M66 12V13H67V12H66ZM66 18H67V17H66V18ZM4 18V17H3V18H4ZM4 12H3V13H4V12ZM6 2C4.34315 2 3 3.34315 3 5H5C5 4.44772 5.44771 4 6 4V2ZM64 2H6V4H64V2ZM67 5C67 3.34315 65.6569 2 64 2V4C64.5523 4 65 4.44772 65 5H67ZM67 12V5H65V12H67ZM64.4865 15C64.4865 13.7224 65.3225 13 66 13V11C63.9011 11 62.4865 12.9639 62.4865 15H64.4865ZM66 17C65.3225 17 64.4865 16.2776 64.4865 15H62.4865C62.4865 17.0361 63.9011 19 66 19V17ZM67 25V18H65V25H67ZM64 28C65.6569 28 67 26.6569 67 25H65C65 25.5523 64.5523 26 64 26V28ZM6 28H64V26H6V28ZM3 25C3 26.6569 4.34315 28 6 28V26C5.44772 26 5 25.5523 5 25H3ZM3 18V25H5V18H3ZM5.51351 15C5.51351 16.2776 4.67745 17 4 17V19C6.0989 19 7.51351 17.0361 7.51351 15H5.51351ZM4 13C4.67745 13 5.51351 13.7224 5.51351 15H7.51351C7.51351 12.9639 6.0989 11 4 11V13ZM3 5V12H5V5H3Z" fill="url(#paint2_linear_110_3173)" mask="url(#path-2-inside-1_110_3173)"/>
<path d="M27 8.44C28.52 8.44 29.74 8.84 30.66 9.66C31.46 10.38 31.88 11.28 31.88 12.36C31.88 13.08 31.72 13.7 31.4 14.2C31.04 14.72 30.52 15.14 29.82 15.42V15.46C30.48 15.64 31.06 16.04 31.54 16.66C32.08 17.34 32.36 18.12 32.36 19C32.36 20.28 31.88 21.3 30.96 22.1C30.02 22.88 28.7 23.28 27 23.28C25.28 23.28 23.96 22.88 23.04 22.1C22.1 21.3 21.64 20.28 21.64 19C21.64 18.12 21.9 17.34 22.46 16.66C22.94 16.04 23.5 15.64 24.18 15.46V15.42C23.46 15.14 22.94 14.72 22.6 14.2C22.28 13.7 22.12 13.08 22.12 12.36C22.12 11.28 22.52 10.38 23.34 9.66C24.24 8.84 25.46 8.44 27 8.44ZM27 10.3C26.16 10.3 25.48 10.52 24.98 10.98C24.54 11.38 24.32 11.86 24.32 12.44C24.32 13.1 24.5 13.62 24.86 14C25.3 14.46 26 14.7 27 14.7C27.98 14.7 28.7 14.46 29.14 14C29.5 13.62 29.68 13.1 29.68 12.44C29.68 11.86 29.46 11.38 29.02 10.98C28.5 10.52 27.84 10.3 27 10.3ZM27 16.44C26 16.44 25.24 16.68 24.72 17.16C24.2 17.62 23.96 18.24 23.96 19C23.96 19.72 24.22 20.3 24.76 20.74C25.28 21.18 26.02 21.4 27 21.4C27.96 21.4 28.72 21.16 29.28 20.72C29.78 20.28 30.04 19.72 30.04 19C30.04 18.24 29.78 17.62 29.3 17.18C28.76 16.68 28 16.44 27 16.44ZM34.7322 19.98C35.1722 19.98 35.5322 20.12 35.8522 20.44C36.1522 20.74 36.3122 21.12 36.3122 21.56C36.3122 22 36.1522 22.36 35.8522 22.68C35.5322 22.96 35.1722 23.12 34.7322 23.12C34.2922 23.12 33.9122 22.96 33.6322 22.68C33.3122 22.36 33.1722 22 33.1722 21.56C33.1722 21.12 33.3122 20.74 33.6322 20.44C33.9122 20.12 34.2922 19.98 34.7322 19.98ZM42.5 8.44C44.02 8.44 45.24 8.84 46.16 9.66C46.96 10.38 47.38 11.28 47.38 12.36C47.38 13.08 47.22 13.7 46.9 14.2C46.54 14.72 46.02 15.14 45.32 15.42V15.46C45.98 15.64 46.56 16.04 47.04 16.66C47.58 17.34 47.86 18.12 47.86 19C47.86 20.28 47.38 21.3 46.46 22.1C45.52 22.88 44.2 23.28 42.5 23.28C40.78 23.28 39.46 22.88 38.54 22.1C37.6 21.3 37.14 20.28 37.14 19C37.14 18.12 37.4 17.34 37.96 16.66C38.44 16.04 39 15.64 39.68 15.46V15.42C38.96 15.14 38.44 14.72 38.1 14.2C37.78 13.7 37.62 13.08 37.62 12.36C37.62 11.28 38.02 10.38 38.84 9.66C39.74 8.84 40.96 8.44 42.5 8.44ZM42.5 10.3C41.66 10.3 40.98 10.52 40.48 10.98C40.04 11.38 39.82 11.86 39.82 12.44C39.82 13.1 40 13.62 40.36 14C40.8 14.46 41.5 14.7 42.5 14.7C43.48 14.7 44.2 14.46 44.64 14C45 13.62 45.18 13.1 45.18 12.44C45.18 11.86 44.96 11.38 44.52 10.98C44 10.52 43.34 10.3 42.5 10.3ZM42.5 16.44C41.5 16.44 40.74 16.68 40.22 17.16C39.7 17.62 39.46 18.24 39.46 19C39.46 19.72 39.72 20.3 40.26 20.74C40.78 21.18 41.52 21.4 42.5 21.4C43.46 21.4 44.22 21.16 44.78 20.72C45.28 20.28 45.54 19.72 45.54 19C45.54 18.24 45.28 17.62 44.8 17.18C44.26 16.68 43.5 16.44 42.5 16.44Z" fill="url(#paint3_linear_110_3173)"/>
<path d="M57.78 12.77L58.3 13.71C57.16 14.08 55.89 14.3 54.49 14.38V15.91H58.52V16.92H57.11V22.08H56.06V16.92H54.49V17.16C54.43 19.19 53.93 20.81 53.01 22.03L52.26 21.24C53.01 20.26 53.41 18.9 53.47 17.16V13.51C55.08 13.47 56.52 13.23 57.78 12.77ZM50.88 21.93H49.92L49.68 20.94C49.97 20.98 50.25 21 50.52 21C50.74 21 50.86 20.87 50.86 20.63V18.61C50.44 18.75 50.03 18.88 49.62 19L49.36 17.94C49.87 17.84 50.37 17.71 50.86 17.56V15.52H49.56V14.51H50.86V12.8H51.89V14.51H53.01V15.52H51.89V17.19C52.28 17.03 52.67 16.85 53.05 16.66V17.72C52.67 17.9 52.28 18.06 51.89 18.22V20.9C51.89 21.58 51.55 21.93 50.88 21.93Z" fill="url(#paint4_linear_110_3173)"/>
<path d="M12.63 5.76H13.37C14.62 7.04 16.06 8.05 17.69 8.79L17.17 9.72C16.69 9.49 16.23 9.24 15.79 8.97V9.87H13.53V11.27H16.31V12.28H13.53V13.76H17.22V14.78H8.79V13.76H12.47V12.28H9.68V11.27H12.47V9.87H10.21V8.96C9.76 9.24 9.29 9.5 8.79 9.74L8.28 8.81C10.02 7.99 11.47 6.98 12.63 5.76ZM10.37 8.86H15.62C14.63 8.24 13.76 7.52 13 6.71C12.27 7.5 11.39 8.22 10.37 8.86ZM13.42 20.1H12.09V19.15C13.17 18.54 14.18 17.89 15.11 17.21H12.24V16.26H16.66V17.16C15.81 17.87 14.88 18.55 13.86 19.2H17.42C17.35 21.64 17.22 23.21 17.04 23.89C16.86 24.57 16.37 24.91 15.57 24.93C15.24 24.93 14.92 24.91 14.61 24.89L14.32 23.89C14.69 23.93 15.06 23.95 15.42 23.95C15.74 23.94 15.97 23.78 16.1 23.48C16.22 23.24 16.31 22.11 16.37 20.1H15.93C15.69 21.26 15.34 22.18 14.9 22.85C14.38 23.61 13.6 24.29 12.56 24.89L11.91 24.06C12.83 23.56 13.53 23 14.01 22.38C14.42 21.8 14.73 21.04 14.93 20.1H14.4C14.04 21.34 13.42 22.31 12.54 23.02L11.88 22.21C12.59 21.66 13.1 20.96 13.42 20.1ZM8.46 18.44H9.55V16.03H10.61V18.44H11.75V19.45H10.61V22.56C10.98 22.44 11.35 22.31 11.72 22.17V23.26C10.76 23.62 9.74 23.93 8.64 24.19L8.36 23.08C8.76 23.02 9.15 22.94 9.55 22.85V19.45H8.46V18.44Z" fill="url(#paint5_linear_110_3173)"/>
<defs>
<filter id="filter0_i_110_3173" x="0" y="0" width="70" height="30" filterUnits="userSpaceOnUse" color-interpolation-filters="sRGB">
<feFlood flood-opacity="0" result="BackgroundImageFix"/>
<feBlend mode="normal" in="SourceGraphic" in2="BackgroundImageFix" result="shape"/>
<feColorMatrix in="SourceAlpha" type="matrix" values="0 0 0 0 0 0 0 0 0 0 0 0 0 0 0 0 0 0 127 0" result="hardAlpha"/>
<feOffset dy="0.5"/>
<feComposite in2="hardAlpha" operator="arithmetic" k2="-1" k3="1"/>
<feColorMatrix type="matrix" values="0 0 0 0 0.984314 0 0 0 0 0.92549 0 0 0 0 0.847059 0 0 0 1 0"/>
<feBlend mode="normal" in2="shape" result="effect1_innerShadow_110_3173"/>
</filter>
<linearGradient id="paint0_linear_110_3173" x1="35" y1="0" x2="35" y2="30" gradientUnits="userSpaceOnUse">
<stop stop-color="#FFAF85"/>
<stop offset="1" stop-color="#B24949"/>
</linearGradient>
<linearGradient id="paint1_linear_110_3173" x1="60.973" y1="3.00001" x2="31.7344" y2="21.9656" gradientUnits="userSpaceOnUse">
<stop stop-color="#FFF6EF"/>
<stop offset="1" stop-color="#F9DBBF"/>
</linearGradient>
<linearGradient id="paint2_linear_110_3173" x1="36.6757" y1="1" x2="34.2945" y2="26.9352" gradientUnits="userSpaceOnUse">
<stop stop-color="#FDF1DE"/>
<stop offset="1" stop-color="#F3D9C3"/>
</linearGradient>
<linearGradient id="paint3_linear_110_3173" x1="36" y1="6" x2="36.5668" y2="22.9944" gradientUnits="userSpaceOnUse">
<stop stop-color="#F77330"/>
<stop offset="0.481082" stop-color="#B24949"/>
<stop offset="1" stop-color="#D35353"/>
</linearGradient>
<linearGradient id="paint4_linear_110_3173" x1="54" y1="10" x2="54" y2="24" gradientUnits="userSpaceOnUse">
<stop stop-color="#D9613B"/>
<stop offset="1" stop-color="#B24949"/>
</linearGradient>
<linearGradient id="paint5_linear_110_3173" x1="13" y1="5" x2="13" y2="25" gradientUnits="userSpaceOnUse">
<stop stop-color="#D9613B"/>
<stop offset="1" stop-color="#B24949"/>
</linearGradient>
</defs>
</svg>
