<svg width="10" height="12" viewBox="0 0 10 12" fill="none" xmlns="http://www.w3.org/2000/svg">
<g id="Group 221668">
<path id="Subtract" fill-rule="evenodd" clip-rule="evenodd" d="M1.92947 4.22146C1.79522 4.48991 1.78866 4.80448 1.91159 5.0783L3.98519 9.69695C4.2114 10.2008 4.80321 10.4258 5.30704 10.1996L8.04387 8.97091C8.54771 8.74471 8.77277 8.1529 8.54657 7.64906L6.47297 3.03041C6.35004 2.75659 6.1106 2.55247 5.82078 2.4744L3.95035 1.9706C3.49123 1.84693 3.00853 2.06365 2.79586 2.48892L1.92947 4.22146ZM4.66741 5.11243C5.08728 4.92392 5.2778 4.43736 5.09297 4.02566C4.90813 3.61397 4.41792 3.43303 3.99806 3.62153C3.5782 3.81003 3.38767 4.29659 3.57251 4.70829C3.75734 5.11999 4.24755 5.30093 4.66741 5.11243Z" fill="#B24949"/>
</g>
</svg>
