<svg width="18" height="18" viewBox="0 0 18 18" fill="none" xmlns="http://www.w3.org/2000/svg">
<path id="Union" fill-rule="evenodd" clip-rule="evenodd" d="M0 9C0 4.03691 4.03691 0 8.99824 0C13.9613 0 17.9982 4.03691 17.9982 9C17.9982 13.9631 13.9613 18 8.99824 18C4.03691 18 0 13.9631 0 9ZM8.99824 17.0721C13.4499 17.0721 17.0703 13.4499 17.0703 9C17.0703 4.55009 13.4517 0.927944 9 0.927944C4.54833 0.927944 0.927944 4.55009 0.927944 9C0.927944 13.4499 4.54657 17.0721 8.99824 17.0721ZM3.95262 7.94391L11.4851 5.00894C11.7382 4.91052 12.0176 4.9527 12.2285 5.12317C12.443 5.29365 12.5449 5.55727 12.5027 5.82792L11.2795 13.8121C11.2285 14.1443 10.9807 14.3921 10.6468 14.443C10.6046 14.4483 10.566 14.4518 10.5291 14.4518C10.2426 14.4518 9.98425 14.2901 9.85596 14.0283L8.06686 10.3587L4.04752 9.37976C3.72063 9.29892 3.49568 9.03179 3.47283 8.69611C3.45174 8.36043 3.63979 8.06518 3.95262 7.94391Z" fill="#292C35"/>
</svg>
