<svg width="16" height="16" viewBox="0 0 16 16" fill="none" xmlns="http://www.w3.org/2000/svg">
<path id="Union" fill-rule="evenodd" clip-rule="evenodd" d="M0 8.00078C0 3.58871 3.58871 0 7.99922 0C12.4113 0 16 3.58871 16 8.00078C16 12.4129 12.4113 16.0016 7.99922 16.0016C3.58871 16.0016 0 12.4129 0 8.00078ZM7.99922 15.1766C11.9566 15.1766 15.1751 11.9566 15.1751 8.00078C15.1751 4.04492 11.9582 0.824919 8.00078 0.824919C4.04335 0.824919 0.824919 4.04492 0.824919 8.00078C0.824919 11.9566 4.04179 15.1766 7.99922 15.1766ZM3.51389 7.06178L10.2101 4.45266C10.4351 4.36517 10.6835 4.40267 10.871 4.55422C11.0616 4.70576 11.1522 4.94012 11.1147 5.18072L10.0273 12.2785C9.98201 12.5737 9.76171 12.794 9.46487 12.8393C9.42737 12.844 9.393 12.8472 9.36019 12.8472C9.10553 12.8472 8.87586 12.7034 8.76181 12.4706L7.17134 9.20845L3.59825 8.33822C3.30766 8.26635 3.10768 8.02888 3.08737 7.73047C3.06862 7.43206 3.23579 7.16959 3.51389 7.06178Z" fill="#292C35"/>
</svg>
