<svg width="20" height="20" viewBox="0 0 20 20" fill="none" xmlns="http://www.w3.org/2000/svg">
<g id="Group 221994">
<path id="Union" fill-rule="evenodd" clip-rule="evenodd" d="M7.27548 16.4501C8.13813 16.8149 9.05469 17 10 17C10.9453 17 11.8619 16.8149 12.7245 16.4501C13.5584 16.096 14.306 15.5928 14.9494 14.9494C15.5928 14.306 16.0978 13.5584 16.4501 12.7245C16.8149 11.8619 17 10.9453 17 10C17 9.05648 16.8149 8.13813 16.4501 7.27548C16.096 6.44159 15.5928 5.69397 14.9494 5.05058C14.306 4.40719 13.5584 3.90218 12.7245 3.54994C11.8619 3.18511 10.9435 3 10 3C9.05648 3 8.13813 3.18511 7.27548 3.54994C6.44159 3.90398 5.69397 4.40719 5.05058 5.05058C4.40719 5.69397 3.90218 6.44159 3.54994 7.27548C3.18511 8.13813 3 9.05469 3 10C3 10.9435 3.18511 11.8619 3.54994 12.7245C3.90398 13.5584 4.40719 14.306 5.05058 14.9494C5.69397 15.5928 6.44159 16.0978 7.27548 16.4501ZM4.25802 10C4.25802 6.83338 6.83338 4.25802 10 4.25802C13.1666 4.25802 15.742 6.83517 15.742 10C15.742 13.1666 13.1666 15.742 10 15.742C6.83338 15.742 4.25802 13.1666 4.25802 10ZM10.4205 12.7677C10.5427 12.8917 10.7027 12.9528 10.8644 12.9528C11.0262 12.9528 11.1879 12.8917 11.3101 12.7694C11.5564 12.5232 11.5564 12.1261 11.3101 11.8798L9.47343 10.0431L11.3101 8.20642C11.5564 7.96021 11.5564 7.56303 11.3101 7.31682C11.0639 7.0706 10.6668 7.0706 10.4205 7.31682L8.13992 9.59743C7.89371 9.84365 7.89371 10.2408 8.13992 10.487L10.4205 12.7677Z" fill="#292C35" fill-opacity="0.4"/>
</g>
</svg>
