<svg width="20" height="21" viewBox="0 0 20 21" fill="none" xmlns="http://www.w3.org/2000/svg">
<path id="Vector" d="M15.2796 17.6202C15.4927 17.98 15.3734 18.461 14.9999 18.6644C14.6343 18.8775 14.1689 18.7524 13.9616 18.3848C13.7387 18.025 13.8678 17.5537 14.2295 17.3406C14.6089 17.1294 15.0664 17.2584 15.2796 17.6202ZM10.7724 19.249C10.7724 19.6656 10.4282 20.0136 9.99605 20.0136C9.57955 20.0136 9.23149 19.6734 9.23149 19.249V18.7133C9.23149 18.287 9.58151 17.9467 9.99605 17.9467C10.4223 17.9467 10.7724 18.287 10.7724 18.7133V19.249ZM6.05395 18.3848C5.8369 18.7622 5.36564 18.8814 5.00389 18.6683C4.63236 18.4591 4.50135 17.9917 4.72036 17.6182L5.28938 16.6229C5.50839 16.2573 5.97769 16.1302 6.34921 16.3394C6.70901 16.5525 6.84198 17.0277 6.62297 17.3895L6.05395 18.3848ZM2.39147 15.2933C2.01994 15.5005 1.54477 15.3754 1.34141 15.0097C1.12436 14.6499 1.24755 14.1728 1.61517 13.9597L3.1443 13.0739C3.50996 12.8705 3.98512 12.9859 4.19435 13.3574C4.40163 13.7172 4.27452 14.1943 3.91082 14.4075L2.39147 15.2933ZM0.764565 10.7743C0.338286 10.7743 0 10.4302 0 10.0097C0 9.58346 0.338286 9.23931 0.764565 9.23931H3.14625C3.57253 9.23931 3.91082 9.58346 3.91082 10.0039C3.91082 10.4302 3.57253 10.7743 3.14625 10.7743H0.764565ZM1.61712 6.04808C1.2456 5.84081 1.12436 5.37151 1.34337 5.00389C1.54673 4.63236 2.01994 4.50722 2.39342 4.72036L4.98238 6.22407C5.34804 6.4333 5.46928 6.90064 5.26592 7.26239C5.04887 7.63392 4.57761 7.7532 4.21782 7.54592L1.61712 6.04808ZM4.72036 2.38755L6.52325 5.51816C6.74225 5.88383 7.21155 6.01484 7.57721 5.79779C7.94287 5.59052 8.06411 5.11535 7.85097 4.74773L6.04026 1.62299C5.83299 1.26124 5.36369 1.13023 5.00194 1.34337C4.63041 1.55651 4.51113 2.02776 4.72036 2.38755ZM9.23344 0.770431C9.23344 0.353929 9.58346 0 9.99801 0C10.4243 0 10.7743 0.346107 10.7743 0.770431V4.37621C10.7743 4.80249 10.4302 5.14664 9.99801 5.1525C9.58151 5.1525 9.23344 4.81422 9.23344 4.37621V0.770431ZM13.9518 1.62299C14.1709 1.25146 14.6343 1.13023 15.0019 1.33946C15.3734 1.54673 15.5044 2.01603 15.2854 2.38951L13.4786 5.52012C13.2753 5.88578 12.7942 6.01484 12.4286 5.80365C12.0629 5.59051 11.9417 5.11535 12.149 4.74773L13.9518 1.62299ZM17.6241 4.72036L14.4896 6.52716C14.1239 6.73443 13.9968 7.20373 14.206 7.57721C14.4231 7.93701 14.8944 8.05824 15.2561 7.85683L18.3926 6.05004C18.7524 5.84276 18.8853 5.37346 18.6663 5.00585C18.4552 4.63432 17.9839 4.50135 17.6241 4.72036ZM19.2354 9.23931C19.6656 9.23931 20.0058 9.58346 19.9999 10.0097C19.9999 10.4302 19.6675 10.7743 19.2354 10.7743H15.6257C15.2092 10.7743 14.8592 10.4302 14.8592 10.0039C14.8592 9.58346 15.2092 9.23931 15.6257 9.23931H19.2354Z" fill="#292C35"/>
</svg>
