<svg width="12" height="12" viewBox="0 0 12 12" fill="none" xmlns="http://www.w3.org/2000/svg">
<path id="Union" fill-rule="evenodd" clip-rule="evenodd" d="M0 5.99998C0 2.69157 2.69157 0 5.99998 0C9.30838 0 12 2.69157 12 5.99998C12 9.30838 9.30838 12 5.99998 12C2.69157 12 0 9.30838 0 5.99998ZM1.09087 5.99998C1.09087 8.70676 3.29319 10.9091 5.99998 10.9091C8.70676 10.9091 10.9091 8.70676 10.9091 5.99998C10.9091 3.29319 8.70676 1.09087 5.99998 1.09087C3.29319 1.09087 1.09087 3.29319 1.09087 5.99998ZM6.5454 5.4544H8.18177C8.48296 5.4544 8.72727 5.69858 8.72727 5.9999C8.72727 6.30122 8.48296 6.5454 8.18177 6.5454H5.9999C5.69858 6.5454 5.4544 6.30109 5.4544 5.9999V2.72716C5.4544 2.42584 5.69858 2.18166 5.9999 2.18166C6.30122 2.18166 6.5454 2.42597 6.5454 2.72716V5.4544Z" fill="#292C35"/>
</svg>
